<svg xmlns="http://www.w3.org/2000/svg" xmlns:xlink="http://www.w3.org/1999/xlink" width="454" zoomAndPan="magnify" viewBox="0 0 340.5 283.500005" height="378" preserveAspectRatio="xMidYMid meet" version="1.0"><defs><clipPath id="25e2ae609d"><path d="M 0.0507812 0 L 339.949219 0 L 339.949219 283 L 0.0507812 283 Z M 0.0507812 0 " clip-rule="nonzero"/></clipPath><clipPath id="74e3c1fc5b"><path d="M 166 122 L 185 122 L 185 136 L 166 136 Z M 166 122 " clip-rule="nonzero"/></clipPath><clipPath id="1ab889633b"><path d="M 462.28125 -7.6875 L 309.207031 436.867188 L -115.527344 290.617188 L 37.546875 -153.9375 Z M 462.28125 -7.6875 " clip-rule="nonzero"/></clipPath><clipPath id="ba5c266231"><path d="M 462.28125 -7.6875 L 309.207031 436.867188 L -115.527344 290.617188 L 37.546875 -153.9375 Z M 462.28125 -7.6875 " clip-rule="nonzero"/></clipPath><clipPath id="837d774f5a"><path d="M 159 116 L 192 116 L 192 149 L 159 149 Z M 159 116 " clip-rule="nonzero"/></clipPath><clipPath id="9350683182"><path d="M 462.28125 -7.6875 L 309.207031 436.867188 L -115.527344 290.617188 L 37.546875 -153.9375 Z M 462.28125 -7.6875 " clip-rule="nonzero"/></clipPath><clipPath id="8ab00a7465"><path d="M 462.28125 -7.6875 L 309.207031 436.867188 L -115.527344 290.617188 L 37.546875 -153.9375 Z M 462.28125 -7.6875 " clip-rule="nonzero"/></clipPath><clipPath id="612da6b3b1"><path d="M 146 103 L 204 103 L 204 160 L 146 160 Z M 146 103 " clip-rule="nonzero"/></clipPath><clipPath id="9b81abb530"><path d="M 462.28125 -7.6875 L 309.207031 436.867188 L -115.527344 290.617188 L 37.546875 -153.9375 Z M 462.28125 -7.6875 " clip-rule="nonzero"/></clipPath><clipPath id="727e8d95e9"><path d="M 462.28125 -7.6875 L 309.207031 436.867188 L -115.527344 290.617188 L 37.546875 -153.9375 Z M 462.28125 -7.6875 " clip-rule="nonzero"/></clipPath><clipPath id="d75ae75e8e"><path d="M 134 92 L 217 92 L 217 174 L 134 174 Z M 134 92 " clip-rule="nonzero"/></clipPath><clipPath id="4133427167"><path d="M 462.28125 -7.6875 L 309.207031 436.867188 L -115.527344 290.617188 L 37.546875 -153.9375 Z M 462.28125 -7.6875 " clip-rule="nonzero"/></clipPath><clipPath id="d3861ccbcd"><path d="M 462.28125 -7.6875 L 309.207031 436.867188 L -115.527344 290.617188 L 37.546875 -153.9375 Z M 462.28125 -7.6875 " clip-rule="nonzero"/></clipPath><clipPath id="3d8bd5b220"><path d="M 120 76 L 230 76 L 230 185 L 120 185 Z M 120 76 " clip-rule="nonzero"/></clipPath><clipPath id="e02cb590c9"><path d="M 462.28125 -7.6875 L 309.207031 436.867188 L -115.527344 290.617188 L 37.546875 -153.9375 Z M 462.28125 -7.6875 " clip-rule="nonzero"/></clipPath><clipPath id="27595f8e53"><path d="M 462.28125 -7.6875 L 309.207031 436.867188 L -115.527344 290.617188 L 37.546875 -153.9375 Z M 462.28125 -7.6875 " clip-rule="nonzero"/></clipPath><clipPath id="21ec8fbb31"><path d="M 106 63 L 243 63 L 243 198 L 106 198 Z M 106 63 " clip-rule="nonzero"/></clipPath><clipPath id="36a1566faf"><path d="M 462.28125 -7.6875 L 309.207031 436.867188 L -115.527344 290.617188 L 37.546875 -153.9375 Z M 462.28125 -7.6875 " clip-rule="nonzero"/></clipPath><clipPath id="23e6c4987a"><path d="M 462.28125 -7.6875 L 309.207031 436.867188 L -115.527344 290.617188 L 37.546875 -153.9375 Z M 462.28125 -7.6875 " clip-rule="nonzero"/></clipPath><clipPath id="ea84e894c5"><path d="M 97 50 L 258 50 L 258 213 L 97 213 Z M 97 50 " clip-rule="nonzero"/></clipPath><clipPath id="1d867af361"><path d="M 462.28125 -7.6875 L 309.207031 436.867188 L -115.527344 290.617188 L 37.546875 -153.9375 Z M 462.28125 -7.6875 " clip-rule="nonzero"/></clipPath><clipPath id="5327d1d370"><path d="M 462.28125 -7.6875 L 309.207031 436.867188 L -115.527344 290.617188 L 37.546875 -153.9375 Z M 462.28125 -7.6875 " clip-rule="nonzero"/></clipPath><clipPath id="a32a90c33d"><path d="M 79 36 L 270 36 L 270 222 L 79 222 Z M 79 36 " clip-rule="nonzero"/></clipPath><clipPath id="4de11366d1"><path d="M 462.28125 -7.6875 L 309.207031 436.867188 L -115.527344 290.617188 L 37.546875 -153.9375 Z M 462.28125 -7.6875 " clip-rule="nonzero"/></clipPath><clipPath id="29af0ff7de"><path d="M 462.28125 -7.6875 L 309.207031 436.867188 L -115.527344 290.617188 L 37.546875 -153.9375 Z M 462.28125 -7.6875 " clip-rule="nonzero"/></clipPath><clipPath id="4f4c368855"><path d="M 66 24 L 278 24 L 278 241 L 66 241 Z M 66 24 " clip-rule="nonzero"/></clipPath><clipPath id="517a56b142"><path d="M 462.28125 -7.6875 L 309.207031 436.867188 L -115.527344 290.617188 L 37.546875 -153.9375 Z M 462.28125 -7.6875 " clip-rule="nonzero"/></clipPath><clipPath id="2df211e854"><path d="M 462.28125 -7.6875 L 309.207031 436.867188 L -115.527344 290.617188 L 37.546875 -153.9375 Z M 462.28125 -7.6875 " clip-rule="nonzero"/></clipPath><clipPath id="4a1b927113"><path d="M 53 9 L 298 9 L 298 249 L 53 249 Z M 53 9 " clip-rule="nonzero"/></clipPath><clipPath id="01fd9948a9"><path d="M 462.28125 -7.6875 L 309.207031 436.867188 L -115.527344 290.617188 L 37.546875 -153.9375 Z M 462.28125 -7.6875 " clip-rule="nonzero"/></clipPath><clipPath id="eb88bf0532"><path d="M 462.28125 -7.6875 L 309.207031 436.867188 L -115.527344 290.617188 L 37.546875 -153.9375 Z M 462.28125 -7.6875 " clip-rule="nonzero"/></clipPath><clipPath id="8f50d6102f"><path d="M 41 5 L 312 5 L 312 269 L 41 269 Z M 41 5 " clip-rule="nonzero"/></clipPath><clipPath id="c75607a620"><path d="M 462.28125 -7.6875 L 309.207031 436.867188 L -115.527344 290.617188 L 37.546875 -153.9375 Z M 462.28125 -7.6875 " clip-rule="nonzero"/></clipPath><clipPath id="431ff6cb77"><path d="M 462.28125 -7.6875 L 309.207031 436.867188 L -115.527344 290.617188 L 37.546875 -153.9375 Z M 462.28125 -7.6875 " clip-rule="nonzero"/></clipPath><clipPath id="9662da1add"><path d="M 118 54 L 325 54 L 325 281 L 118 281 Z M 118 54 " clip-rule="nonzero"/></clipPath><clipPath id="25a4590e13"><path d="M 462.28125 -7.6875 L 309.207031 436.867188 L -115.527344 290.617188 L 37.546875 -153.9375 Z M 462.28125 -7.6875 " clip-rule="nonzero"/></clipPath><clipPath id="f50bce677c"><path d="M 462.28125 -7.6875 L 309.207031 436.867188 L -115.527344 290.617188 L 37.546875 -153.9375 Z M 462.28125 -7.6875 " clip-rule="nonzero"/></clipPath><clipPath id="aea1b62f40"><path d="M 27 0 L 232 0 L 232 161 L 27 161 Z M 27 0 " clip-rule="nonzero"/></clipPath><clipPath id="b26f669780"><path d="M 462.28125 -7.6875 L 309.207031 436.867188 L -115.527344 290.617188 L 37.546875 -153.9375 Z M 462.28125 -7.6875 " clip-rule="nonzero"/></clipPath><clipPath id="6a76963130"><path d="M 462.28125 -7.6875 L 309.207031 436.867188 L -115.527344 290.617188 L 37.546875 -153.9375 Z M 462.28125 -7.6875 " clip-rule="nonzero"/></clipPath><clipPath id="e098569de6"><path d="M 11 0 L 337 0 L 337 283 L 11 283 Z M 11 0 " clip-rule="nonzero"/></clipPath><clipPath id="15470c4f3c"><path d="M 462.28125 -7.6875 L 309.207031 436.867188 L -115.527344 290.617188 L 37.546875 -153.9375 Z M 462.28125 -7.6875 " clip-rule="nonzero"/></clipPath><clipPath id="fb8e563999"><path d="M 462.28125 -7.6875 L 309.207031 436.867188 L -115.527344 290.617188 L 37.546875 -153.9375 Z M 462.28125 -7.6875 " clip-rule="nonzero"/></clipPath><clipPath id="7b6e1f65e4"><path d="M 0.0507812 0 L 339.949219 0 L 339.949219 283 L 0.0507812 283 Z M 0.0507812 0 " clip-rule="nonzero"/></clipPath><clipPath id="380c2f1a66"><path d="M 462.28125 -7.6875 L 309.207031 436.867188 L -115.527344 290.617188 L 37.546875 -153.9375 Z M 462.28125 -7.6875 " clip-rule="nonzero"/></clipPath><clipPath id="e820dbda27"><path d="M 462.28125 -7.6875 L 309.207031 436.867188 L -115.527344 290.617188 L 37.546875 -153.9375 Z M 462.28125 -7.6875 " clip-rule="nonzero"/></clipPath><clipPath id="b235102598"><path d="M 276 2 L 339.949219 2 L 339.949219 283 L 276 283 Z M 276 2 " clip-rule="nonzero"/></clipPath><clipPath id="c5c7d85940"><path d="M 462.28125 -7.6875 L 309.207031 436.867188 L -115.527344 290.617188 L 37.546875 -153.9375 Z M 462.28125 -7.6875 " clip-rule="nonzero"/></clipPath><clipPath id="53ca4b5663"><path d="M 462.28125 -7.6875 L 309.207031 436.867188 L -115.527344 290.617188 L 37.546875 -153.9375 Z M 462.28125 -7.6875 " clip-rule="nonzero"/></clipPath><clipPath id="a613e33da6"><path d="M 0.0507812 0 L 236 0 L 236 283 L 0.0507812 283 Z M 0.0507812 0 " clip-rule="nonzero"/></clipPath><clipPath id="86ca33ad1e"><path d="M 462.28125 -7.6875 L 309.207031 436.867188 L -115.527344 290.617188 L 37.546875 -153.9375 Z M 462.28125 -7.6875 " clip-rule="nonzero"/></clipPath><clipPath id="dc2ef3bf05"><path d="M 462.28125 -7.6875 L 309.207031 436.867188 L -115.527344 290.617188 L 37.546875 -153.9375 Z M 462.28125 -7.6875 " clip-rule="nonzero"/></clipPath><clipPath id="7d9edbbb93"><path d="M 0.0507812 0 L 339.949219 0 L 339.949219 283 L 0.0507812 283 Z M 0.0507812 0 " clip-rule="nonzero"/></clipPath><clipPath id="631399de83"><path d="M 462.28125 -7.6875 L 309.207031 436.867188 L -115.527344 290.617188 L 37.546875 -153.9375 Z M 462.28125 -7.6875 " clip-rule="nonzero"/></clipPath><clipPath id="5c50a5b1d5"><path d="M 462.28125 -7.6875 L 309.207031 436.867188 L -115.527344 290.617188 L 37.546875 -153.9375 Z M 462.28125 -7.6875 " clip-rule="nonzero"/></clipPath></defs><g clip-path="url(#25e2ae609d)"><path fill="#ffffff" d="M 0.0507812 0 L 339.949219 0 L 339.949219 283 L 0.0507812 283 Z M 0.0507812 0 " fill-opacity="1" fill-rule="nonzero"/><path fill="#8c52ff" d="M 0.0507812 0 L 339.949219 0 L 339.949219 283 L 0.0507812 283 Z M 0.0507812 0 " fill-opacity="1" fill-rule="nonzero"/></g><g clip-path="url(#74e3c1fc5b)"><g clip-path="url(#1ab889633b)"><g clip-path="url(#ba5c266231)"><path fill="#14213d" d="M 166.464844 129.160156 C 167.726562 124.199219 173.53125 121.304688 178.3125 123.066406 C 183.160156 124.617188 185.957031 130.476562 183.894531 135.160156 C 185.246094 130.523438 182.617188 125.316406 178.050781 123.824219 C 173.535156 122.183594 168.253906 124.671875 166.464844 129.160156 Z M 166.464844 129.160156 " fill-opacity="1" fill-rule="nonzero"/></g></g></g><g clip-path="url(#837d774f5a)"><g clip-path="url(#9350683182)"><g clip-path="url(#8ab00a7465)"><path fill="#14213d" d="M 171.382812 116.773438 C 187.953125 112.375 198.757812 132.957031 186.238281 144.441406 C 178.777344 151.292969 166.210938 149.3125 161.402344 140.355469 C 160.640625 138.972656 160.128906 137.476562 159.792969 135.957031 C 162.355469 145.214844 173.125 150.117188 181.628906 145.910156 C 197.980469 137.378906 189.515625 113.535156 171.382812 116.773438 Z M 171.382812 116.773438 " fill-opacity="1" fill-rule="nonzero"/></g></g></g><g clip-path="url(#612da6b3b1)"><g clip-path="url(#9b81abb530)"><g clip-path="url(#727e8d95e9)"><path fill="#14213d" d="M 174.0625 159.933594 C 148.515625 159.382812 137.1875 128.382812 155.660156 111.003906 C 171.53125 96.46875 197.335938 104.0625 202.332031 125.097656 C 202.953125 127.789062 203.105469 130.550781 202.953125 133.273438 C 202.910156 130.585938 202.550781 127.828125 201.824219 125.230469 C 194.972656 102.261719 164.574219 98.007812 152.050781 118.574219 C 141.734375 136.394531 153.699219 158.304688 174.0625 159.933594 Z M 174.0625 159.933594 " fill-opacity="1" fill-rule="nonzero"/></g></g></g><g clip-path="url(#d75ae75e8e)"><g clip-path="url(#4133427167)"><g clip-path="url(#d3861ccbcd)"><path fill="#14213d" d="M 181.210938 92 C 218.191406 97.085938 229.578125 143.445312 200.078125 165.855469 C 174.648438 184.34375 138.753906 169.441406 134.664062 138.09375 C 134.183594 134.09375 134.382812 130.0625 135.019531 126.128906 C 135.019531 126.128906 134.824219 129.109375 134.824219 129.109375 C 134.671875 130.75 134.863281 132.667969 134.871094 134.316406 C 134.921875 134.726562 135.277344 137.507812 135.339844 137.996094 C 141.71875 172.628906 185.097656 183.65625 206.746094 155.65625 C 224.5625 131.265625 210.703125 97.617188 181.210938 92 Z M 181.210938 92 " fill-opacity="1" fill-rule="nonzero"/></g></g></g><g clip-path="url(#3d8bd5b220)"><g clip-path="url(#e02cb590c9)"><g clip-path="url(#27595f8e53)"><path fill="#14213d" d="M 164.234375 184.703125 C 143.042969 181.214844 125.222656 163.566406 121.230469 142.386719 C 114.148438 108.734375 141.320312 76.191406 175.679688 76.988281 C 197.460938 77.082031 218.070312 91.371094 225.671875 111.777344 C 229.460938 121.769531 230.246094 132.847656 227.726562 143.105469 C 228.609375 137.90625 228.800781 132.617188 228.230469 127.417969 C 223.914062 88.363281 179.585938 66.890625 146.628906 88.585938 C 107.609375 114.625 118.929688 173.6875 164.234375 184.703125 Z M 164.234375 184.703125 " fill-opacity="1" fill-rule="nonzero"/></g></g></g><g clip-path="url(#21ec8fbb31)"><g clip-path="url(#36a1566faf)"><g clip-path="url(#23e6c4987a)"><path fill="#14213d" d="M 159.320312 197.089844 C 117.527344 188.230469 95.03125 141.8125 112.980469 103.1875 C 136.617188 52.183594 208.59375 49.957031 234.890625 99.792969 C 242.601562 114.460938 244.578125 132.183594 240.113281 148.019531 C 241.445312 141.589844 241.914062 135.011719 241.429688 128.515625 C 239.03125 95.261719 211.347656 68.226562 177.988281 67.152344 C 137.515625 65.203125 104.453125 102.109375 110.554688 142.132812 C 114 168 134.050781 190.453125 159.320312 197.089844 Z M 159.320312 197.089844 " fill-opacity="1" fill-rule="nonzero"/></g></g></g><g clip-path="url(#ea84e894c5)"><g clip-path="url(#1d867af361)"><g clip-path="url(#5327d1d370)"><path fill="#14213d" d="M 97.859375 111.382812 C 103.191406 88.234375 119.972656 67.941406 141.605469 57.921875 C 197.683594 31.71875 261.488281 75.957031 257.121094 137.589844 C 253.660156 188.515625 203.441406 224.191406 154.40625 209.476562 C 184.835938 217.078125 218.726562 205.128906 237.328125 179.914062 C 264.042969 144.394531 256.074219 93.53125 219.601562 68.074219 C 174.855469 37.027344 113.339844 59.386719 97.859375 111.382812 Z M 97.859375 111.382812 " fill-opacity="1" fill-rule="nonzero"/></g></g></g><g clip-path="url(#a32a90c33d)"><g clip-path="url(#4de11366d1)"><g clip-path="url(#29af0ff7de)"><path fill="#14213d" d="M 149.492188 221.863281 C 122.449219 215.074219 99.359375 195.300781 88.0625 169.847656 C 76.414062 144.171875 77.25 113.507812 90.132812 88.394531 C 116.660156 35.046875 188.507812 19.621094 234.449219 57.597656 C 256.230469 75.128906 269.449219 102.714844 269.175781 130.691406 C 269.132812 139.90625 267.609375 149.070312 264.886719 157.847656 C 268.238281 144.582031 268.808594 130.636719 266.324219 117.183594 C 252.308594 43.511719 162.839844 15.527344 109.898438 68.890625 C 61.78125 119.019531 83.597656 200.835938 149.492188 221.863281 Z M 149.492188 221.863281 " fill-opacity="1" fill-rule="nonzero"/></g></g></g><g clip-path="url(#4f4c368855)"><g clip-path="url(#517a56b142)"><g clip-path="url(#2df211e854)"><path fill="#14213d" d="M 277.273438 162.765625 C 269.101562 193.570312 246.234375 219.59375 216.984375 232.152344 C 187.503906 245.085938 152.507812 243.695312 124.023438 228.628906 C 63.5 197.59375 46.902344 115.363281 90.890625 63.445312 C 114.617188 34.589844 153.683594 19.78125 190.53125 26.269531 C 195.710938 27.164062 200.796875 28.496094 205.785156 30.066406 C 195.691406 27.410156 185.257812 26.070312 174.832031 26.332031 C 164.464844 26.613281 154.15625 28.339844 144.308594 31.5625 C 69.550781 56.101562 46.527344 149.882812 101.960938 205.863281 C 158.554688 261.542969 252.355469 237.765625 277.273438 162.761719 Z M 277.273438 162.765625 " fill-opacity="1" fill-rule="nonzero"/></g></g></g><g clip-path="url(#4a1b927113)"><g clip-path="url(#01fd9948a9)"><g clip-path="url(#eb88bf0532)"><path fill="#14213d" d="M 139.660156 246.636719 C 97.464844 234.863281 64.5 198.851562 55.660156 156.015625 C 37.765625 70.472656 113.949219 -5.710938 199.503906 11.699219 C 260.984375 23.882812 303.890625 82.519531 296.554688 144.792969 C 291.894531 185.828125 266.160156 222.359375 228.722656 239.921875 C 227.125 240.839844 223.046875 242.359375 221.324219 243.128906 C 220.609375 243.492188 219.5625 243.792969 218.808594 244.074219 C 217.546875 244.507812 214.996094 245.390625 213.734375 245.824219 C 211.992188 246.449219 207.804688 247.445312 205.992188 248.007812 C 207.832031 247.429688 211.875 246.125 213.621094 245.496094 C 214.867188 245.011719 217.355469 244.023438 218.597656 243.535156 C 220.253906 242.957031 224.238281 240.96875 225.894531 240.226562 C 301.210938 203.03125 316.179688 101.9375 253.675781 45.441406 C 191.726562 -10.210938 92.78125 14.730469 64.59375 93.105469 C 41.613281 155.847656 76.421875 225.769531 139.660156 246.636719 Z M 139.660156 246.636719 " fill-opacity="1" fill-rule="nonzero"/></g></g></g><g clip-path="url(#8f50d6102f)"><g clip-path="url(#c75607a620)"><g clip-path="url(#431ff6cb77)"><path fill="#14213d" d="M 215.613281 5.292969 C 254.003906 16.265625 285.800781 45.230469 300.929688 82.125 C 327.785156 145.945312 299.53125 222.109375 237.832031 253.433594 C 183.882812 282.152344 112.761719 268.617188 73.457031 221.789062 C 49.019531 193.601562 37.210938 154.996094 42.089844 117.992188 C 43.273438 109.058594 45.429688 100.238281 48.316406 91.722656 C 42.945312 110.503906 41.519531 130.375 44.484375 149.675781 C 55.515625 223.136719 125.660156 273.578125 198.726562 259.894531 C 230.082031 254.023438 259.070312 236.382812 278.449219 211.015625 C 333.507812 138.804688 301.027344 35.050781 215.613281 5.292969 Z M 215.613281 5.292969 " fill-opacity="1" fill-rule="nonzero"/></g></g></g><g clip-path="url(#9662da1add)"><g clip-path="url(#25a4590e13)"><g clip-path="url(#f50bce677c)"><path fill="#14213d" d="M 299.46875 54.699219 C 308.238281 67.40625 314.894531 81.75 319.089844 96.632812 C 319.824219 99.195312 320.539062 102.535156 321.191406 105.148438 C 321.648438 108.003906 322.34375 110.960938 322.738281 113.796875 C 322.875 115.054688 323.550781 119.976562 323.667969 121.066406 C 323.757812 121.882812 323.902344 124.578125 323.980469 125.457031 C 324.277344 128.78125 324.277344 133.804688 324.308594 137.203125 C 324.230469 139.390625 324.03125 143.9375 323.890625 146.019531 C 323.589844 148.765625 323.351562 152.09375 322.949219 154.800781 C 322.730469 155.988281 321.953125 161.035156 321.757812 162.074219 C 321.539062 162.929688 321.019531 165.484375 320.796875 166.386719 C 305.628906 236.089844 240.589844 285.304688 169.34375 280.433594 C 151.921875 279.3125 134.71875 274.828125 118.957031 267.394531 C 126.210938 269.988281 133.632812 272.019531 141.132812 273.515625 C 186.066406 282.867188 233.535156 270.550781 268.269531 240.582031 C 301.976562 211.585938 320.9375 167.238281 318.882812 122.847656 C 317.972656 99.007812 310.945312 75.574219 299.472656 54.699219 Z M 299.46875 54.699219 " fill-opacity="1" fill-rule="nonzero"/></g></g></g><g clip-path="url(#aea1b62f40)"><g clip-path="url(#b26f669780)"><g clip-path="url(#6a76963130)"><path fill="#14213d" d="M 31.421875 160.246094 C 19.558594 114.894531 33.457031 64.015625 65.519531 29.742188 C 98.664062 -6.421875 150.433594 -23.800781 198.535156 -14.046875 C 209.859375 -11.722656 221.074219 -8.136719 231.464844 -3.050781 C 217.5625 -7.835938 202.988281 -10.90625 188.300781 -11.734375 C 92.820312 -17.4375 17.988281 65.894531 31.421875 160.246094 Z M 31.421875 160.246094 " fill-opacity="1" fill-rule="nonzero"/></g></g></g><g clip-path="url(#e098569de6)"><g clip-path="url(#15470c4f3c)"><g clip-path="url(#fb8e563999)"><path fill="#14213d" d="M 178.136719 291.925781 C 144.324219 293.453125 110.136719 283.453125 82.179688 264.421875 C 41.316406 236.773438 14.765625 189.648438 12.230469 140.371094 C 7.992188 67.050781 54.089844 -0.375 123.878906 -23.195312 C 229.574219 -57.636719 338.03125 21.386719 336.027344 132.867188 C 335.671875 149.765625 332.4375 166.523438 326.816406 182.421875 C 334.054688 158.378906 335.882812 132.707031 331.53125 107.980469 C 326.679688 79.332031 313.699219 52.207031 294.691406 30.277344 C 253.550781 -17.394531 185.914062 -35.9375 126.300781 -15.878906 C 68.324219 3.449219 26.800781 54.703125 19.878906 115.40625 C 14.28125 162.792969 31.644531 211.558594 65.445312 245.175781 C 95.015625 274.703125 136.351562 291.78125 178.136719 291.925781 Z M 178.136719 291.925781 " fill-opacity="1" fill-rule="nonzero"/></g></g></g><g clip-path="url(#7b6e1f65e4)"><g clip-path="url(#380c2f1a66)"><g clip-path="url(#e820dbda27)"><path fill="#14213d" d="M 152.828125 -39.488281 C 181.875 -43.980469 211.988281 -40.652344 239.46875 -30.242188 C 329.800781 3.917969 374.855469 105.929688 340.320312 195.945312 C 314.777344 264.019531 247.039062 310.234375 174.34375 309.300781 C 77.199219 308.84375 -2.015625 228.128906 0.101562 130.902344 C 0.871094 92.140625 15.066406 53.617188 40.0625 23.953125 C 27.996094 39.710938 18.695312 57.539062 12.605469 76.390625 C -9.320312 142.78125 12.34375 218.34375 66.722656 262.414062 C 119.605469 306.65625 198.171875 313.675781 257.964844 279.273438 C 300.582031 255.695312 331.578125 212.847656 341.105469 165.128906 C 364.160156 50.46875 268.601562 -51.863281 152.828125 -39.488281 Z M 152.828125 -39.488281 " fill-opacity="1" fill-rule="nonzero"/></g></g></g><g clip-path="url(#b235102598)"><g clip-path="url(#c5c7d85940)"><g clip-path="url(#53ca4b5663)"><path fill="#14213d" d="M 309.304688 2.710938 C 397.097656 82.058594 379.835938 231.785156 276.125 288.824219 C 276.125 288.824219 280.195312 285.664062 280.195312 285.664062 C 281.234375 284.894531 283.21875 283.285156 284.195312 282.441406 C 287.902344 279.441406 292.308594 275.578125 295.714844 272.285156 C 304.335938 264.199219 312.242188 255.15625 319.269531 245.679688 C 373.539062 172.328125 368.375 71.902344 309.304688 2.710938 Z M 309.304688 2.710938 " fill-opacity="1" fill-rule="nonzero"/></g></g></g><g clip-path="url(#a613e33da6)"><g clip-path="url(#86ca33ad1e)"><g clip-path="url(#dc2ef3bf05)"><path fill="#14213d" d="M 191.636719 317.84375 C 63.421875 333.195312 -40.503906 213.867188 -10.582031 88.4375 C 7.820312 10.570312 73.644531 -47.316406 153.261719 -55.183594 C 181.105469 -57.792969 209.421875 -54.109375 235.273438 -44.25 C 181.011719 -60.914062 120.238281 -52.054688 73.652344 -19.769531 C -9.890625 37.089844 -31.800781 151.964844 24.867188 235.632812 C 61.320312 290.269531 126.0625 321.648438 191.636719 317.84375 Z M 191.636719 317.84375 " fill-opacity="1" fill-rule="nonzero"/></g></g></g><g clip-path="url(#7d9edbbb93)"><g clip-path="url(#631399de83)"><g clip-path="url(#5c50a5b1d5)"><path fill="#14213d" d="M 334.265625 252.921875 C 304.898438 293.429688 259.679688 321.835938 210.519531 331.085938 C 76.6875 356.539062 -43.828125 243.234375 -27.792969 108.175781 C -16.394531 3.421875 77.75 -76.847656 182.964844 -71.613281 C 287.632812 -67.683594 373.832031 19.035156 376.015625 123.875 C 376.6875 148.800781 372.511719 173.789062 363.976562 197.167969 C 371.511719 173.585938 374.761719 148.664062 373.34375 123.984375 C 370.144531 62.5625 336.886719 3.78125 285.546875 -30.046875 C 190.277344 -94.445312 56.882812 -61.539062 3.296875 40.375 C -51.5 141.984375 -4.9375 270.476562 101.773438 314.117188 C 184.113281 348.191406 279.054688 322.613281 334.265625 252.921875 Z M 334.265625 252.921875 " fill-opacity="1" fill-rule="nonzero"/></g></g></g></svg>