<svg xmlns="http://www.w3.org/2000/svg" xmlns:xlink="http://www.w3.org/1999/xlink" width="1080" zoomAndPan="magnify" viewBox="0 0 810 809.999993" height="1080" preserveAspectRatio="xMidYMid meet" version="1.0"><defs><clipPath id="7a51347827"><path d="M 22.226562 22.226562 L 551 22.226562 L 551 498 L 22.226562 498 Z M 22.226562 22.226562 " clip-rule="nonzero"/></clipPath><clipPath id="5d10b82e04"><path d="M 259 300 L 787.976562 300 L 787.976562 787.976562 L 259 787.976562 Z M 259 300 " clip-rule="nonzero"/></clipPath></defs><rect x="-81" width="972" fill="#ffffff" y="-80.999999" height="971.999992" fill-opacity="1"/><rect x="-81" width="972" fill="#14213d" y="-80.999999" height="971.999992" fill-opacity="1"/><g clip-path="url(#7a51347827)"><path fill="#8c52ff" d="M 286.207031 22.226562 C 140.359375 22.226562 22.226562 122.671875 22.226562 246.609375 C 22.265625 252.382812 22.550781 258.144531 23.089844 263.890625 C 23.625 269.636719 24.40625 275.351562 25.4375 281.03125 C 26.46875 286.710938 27.742188 292.335938 29.261719 297.90625 C 30.777344 303.476562 32.535156 308.972656 34.527344 314.390625 C 36.519531 319.804688 38.742188 325.128906 41.195312 330.355469 C 43.652344 335.578125 46.324219 340.6875 49.222656 345.683594 C 52.117188 350.675781 55.222656 355.535156 58.539062 360.261719 C 61.855469 364.984375 65.371094 369.558594 69.082031 373.980469 L 22.226562 497.390625 L 152.5 440.105469 C 161.441406 444.546875 170.585938 448.523438 179.933594 452.03125 C 189.28125 455.539062 198.78125 458.5625 208.4375 461.101562 C 218.089844 463.640625 227.851562 465.679688 237.714844 467.222656 C 247.578125 468.765625 257.496094 469.800781 267.464844 470.332031 C 273.667969 470.859375 279.871094 470.992188 286.207031 470.992188 C 410.410156 470.992188 514.417969 398.132812 542.53125 300.066406 C 547.644531 282.613281 550.195312 264.796875 550.183594 246.609375 C 550.183594 122.671875 432.054688 22.226562 286.207031 22.226562 Z M 328.839844 303.867188 C 327.582031 305.507812 326.238281 307.070312 324.808594 308.5625 C 323.378906 310.054688 321.871094 311.460938 320.285156 312.785156 C 318.699219 314.109375 317.042969 315.34375 315.320312 316.484375 C 313.601562 317.628906 311.820312 318.671875 309.984375 319.617188 C 308.144531 320.5625 306.261719 321.402344 304.332031 322.140625 C 302.402344 322.878906 300.4375 323.507812 298.4375 324.027344 C 296.4375 324.546875 294.414062 324.957031 292.371094 325.253906 C 290.328125 325.550781 288.273438 325.734375 286.207031 325.804688 C 249.765625 325.804688 220.210938 284.4375 220.210938 233.410156 C 220.210938 182.382812 249.765625 141.019531 286.207031 141.019531 C 322.648438 141.019531 352.203125 182.382812 352.203125 233.410156 C 352.351562 239.734375 351.957031 246.023438 351.023438 252.277344 C 350.089844 258.535156 348.625 264.664062 346.636719 270.667969 C 344.644531 276.667969 342.15625 282.457031 339.167969 288.03125 C 336.179688 293.609375 332.738281 298.886719 328.839844 303.867188 Z M 328.839844 303.867188 " fill-opacity="1" fill-rule="nonzero"/></g><path fill="#8c52ff" d="M 328.839844 303.867188 L 299.40625 286.207031 L 328.839844 303.867188 C 332.738281 298.886719 336.179688 293.609375 339.167969 288.035156 C 342.15625 282.457031 344.644531 276.667969 346.636719 270.667969 C 348.625 264.664062 350.089844 258.535156 351.023438 252.277344 C 351.957031 246.023438 352.351562 239.734375 352.203125 233.410156 C 352.203125 182.382812 322.648438 141.019531 286.207031 141.019531 C 249.765625 141.019531 220.210938 182.382812 220.210938 233.410156 C 220.210938 284.4375 249.765625 325.804688 286.207031 325.804688 C 288.273438 325.734375 290.328125 325.550781 292.371094 325.253906 C 294.414062 324.957031 296.4375 324.546875 298.4375 324.027344 C 300.4375 323.507812 302.402344 322.878906 304.332031 322.140625 C 306.261719 321.402344 308.144531 320.5625 309.984375 319.617188 C 311.820312 318.671875 313.601562 317.628906 315.320312 316.484375 C 317.042969 315.34375 318.699219 314.109375 320.285156 312.785156 C 321.871094 311.460938 323.378906 310.054688 324.808594 308.5625 C 326.238281 307.070312 327.582031 305.507812 328.839844 303.867188 Z M 328.839844 303.867188 " fill-opacity="1" fill-rule="nonzero"/><g clip-path="url(#5d10b82e04)"><path fill="#fca311" d="M 787.765625 523.789062 C 787.765625 405.261719 679.667969 308.117188 542.53125 300.066406 C 514.417969 398.132812 410.410156 470.992188 286.207031 470.992188 C 279.871094 470.992188 273.667969 470.859375 267.464844 470.332031 C 262.347656 487.785156 259.796875 505.601562 259.808594 523.789062 C 259.808594 647.726562 377.9375 748.167969 523.789062 748.167969 C 534.386719 748.214844 544.957031 747.699219 555.503906 746.625 C 566.046875 745.550781 576.503906 743.917969 586.875 741.734375 C 597.246094 739.546875 607.472656 736.820312 617.554688 733.550781 C 627.636719 730.28125 637.519531 726.484375 647.199219 722.167969 L 787.765625 787.765625 L 733.121094 660.398438 C 737.417969 655.816406 741.488281 651.042969 745.335938 646.082031 C 749.1875 641.121094 752.796875 635.992188 756.167969 630.695312 C 759.539062 625.398438 762.65625 619.953125 765.519531 614.367188 C 768.382812 608.777344 770.980469 603.070312 773.3125 597.238281 C 775.644531 591.410156 777.703125 585.484375 779.480469 579.460938 C 781.261719 573.441406 782.757812 567.347656 783.96875 561.1875 C 785.183594 555.027344 786.105469 548.824219 786.738281 542.578125 C 787.375 536.328125 787.714844 530.066406 787.765625 523.789062 Z M 787.765625 523.789062 " fill-opacity="1" fill-rule="nonzero"/></g><path fill="#fca311" d="M 372.199219 314.492188 L 347.714844 299.800781 C 350.652344 294.796875 353.242188 289.617188 355.480469 284.257812 C 357.71875 278.902344 359.585938 273.421875 361.078125 267.8125 C 362.574219 262.203125 363.683594 256.515625 364.40625 250.757812 C 365.128906 244.996094 365.460938 239.214844 365.398438 233.410156 C 365.398438 175.191406 329.882812 127.820312 286.207031 127.820312 C 242.53125 127.820312 207.011719 175.191406 207.011719 233.410156 C 207.011719 291.632812 242.53125 339.003906 286.207031 339.003906 C 290.34375 338.933594 294.4375 338.476562 298.492188 337.636719 C 302.542969 336.796875 306.480469 335.585938 310.304688 334.003906 C 314.128906 332.421875 317.773438 330.5 321.234375 328.234375 C 324.699219 325.964844 327.917969 323.394531 330.898438 320.523438 L 358.617188 337.140625 C 359.359375 337.570312 360.132812 337.921875 360.945312 338.199219 C 361.753906 338.476562 362.585938 338.671875 363.433594 338.785156 C 364.285156 338.902344 365.136719 338.933594 365.992188 338.882812 C 366.84375 338.832031 367.6875 338.699219 368.515625 338.484375 C 369.347656 338.269531 370.148438 337.976562 370.917969 337.605469 C 371.691406 337.238281 372.421875 336.792969 373.109375 336.28125 C 373.792969 335.769531 374.425781 335.195312 375 334.558594 C 375.574219 333.925781 376.082031 333.238281 376.523438 332.503906 C 376.964844 331.773438 377.332031 331 377.621094 330.195312 C 377.914062 329.390625 378.125 328.5625 378.253906 327.71875 C 378.386719 326.871094 378.433594 326.019531 378.398438 325.164062 C 378.363281 324.308594 378.246094 323.464844 378.042969 322.628906 C 377.84375 321.796875 377.566406 320.992188 377.210938 320.210938 C 376.855469 319.433594 376.425781 318.695312 375.925781 318 C 375.425781 317.304688 374.863281 316.664062 374.238281 316.078125 C 373.613281 315.492188 372.9375 314.972656 372.210938 314.519531 Z M 286.207031 312.605469 C 257.589844 312.605469 233.410156 276.332031 233.410156 233.410156 C 233.410156 190.488281 257.589844 154.21875 286.207031 154.21875 C 314.820312 154.21875 339.003906 190.488281 339.003906 233.410156 C 339.050781 238.023438 338.792969 242.617188 338.226562 247.191406 C 337.65625 251.769531 336.785156 256.289062 335.609375 260.746094 C 334.433594 265.207031 332.96875 269.566406 331.207031 273.832031 C 329.445312 278.09375 327.40625 282.21875 325.089844 286.207031 L 306.203125 274.882812 C 305.460938 274.453125 304.683594 274.101562 303.875 273.824219 C 303.0625 273.546875 302.234375 273.351562 301.382812 273.238281 C 300.535156 273.121094 299.683594 273.089844 298.828125 273.140625 C 297.972656 273.191406 297.132812 273.324219 296.300781 273.539062 C 295.472656 273.753906 294.671875 274.046875 293.898438 274.417969 C 293.125 274.785156 292.398438 275.226562 291.710938 275.742188 C 291.023438 276.253906 290.394531 276.828125 289.820312 277.464844 C 289.246094 278.097656 288.738281 278.78125 288.296875 279.515625 C 287.855469 280.25 287.488281 281.019531 287.195312 281.828125 C 286.90625 282.632812 286.695312 283.457031 286.5625 284.304688 C 286.433594 285.152344 286.386719 286.003906 286.421875 286.859375 C 286.457031 287.714844 286.574219 288.558594 286.773438 289.394531 C 286.972656 290.226562 287.25 291.03125 287.609375 291.8125 C 287.964844 292.589844 288.394531 293.328125 288.894531 294.023438 C 289.394531 294.71875 289.957031 295.359375 290.582031 295.945312 C 291.207031 296.53125 291.882812 297.050781 292.609375 297.503906 L 306.824219 306.03125 C 303.789062 308.121094 300.511719 309.726562 297 310.84375 C 293.492188 311.964844 289.890625 312.550781 286.207031 312.605469 Z M 286.207031 312.605469 " fill-opacity="1" fill-rule="nonzero"/><path fill="#8c52ff" d="M 602.214844 638.144531 L 536.222656 453.359375 C 535.992188 452.71875 535.71875 452.105469 535.398438 451.507812 C 535.074219 450.914062 534.710938 450.34375 534.300781 449.804688 C 533.890625 449.265625 533.441406 448.761719 532.957031 448.292969 C 532.46875 447.820312 531.949219 447.390625 531.394531 447 C 530.839844 446.613281 530.261719 446.265625 529.65625 445.964844 C 529.050781 445.664062 528.421875 445.410156 527.777344 445.207031 C 527.132812 445 526.476562 444.847656 525.804688 444.746094 C 525.136719 444.640625 524.464844 444.589844 523.789062 444.589844 C 523.109375 444.589844 522.4375 444.640625 521.769531 444.746094 C 521.097656 444.847656 520.441406 445 519.796875 445.207031 C 519.152344 445.410156 518.527344 445.664062 517.917969 445.964844 C 517.3125 446.265625 516.734375 446.613281 516.179688 447 C 515.625 447.390625 515.105469 447.820312 514.621094 448.292969 C 514.132812 448.761719 513.683594 449.265625 513.273438 449.804688 C 512.867188 450.34375 512.5 450.914062 512.179688 451.507812 C 511.855469 452.105469 511.582031 452.71875 511.355469 453.359375 L 445.359375 638.144531 C 445.066406 638.960938 444.859375 639.796875 444.730469 640.65625 C 444.605469 641.511719 444.5625 642.375 444.605469 643.238281 C 444.648438 644.105469 444.777344 644.960938 444.988281 645.800781 C 445.199219 646.640625 445.492188 647.453125 445.863281 648.238281 C 446.234375 649.019531 446.675781 649.761719 447.195312 650.457031 C 447.710938 651.152344 448.292969 651.792969 448.933594 652.371094 C 449.578125 652.953125 450.269531 653.46875 451.015625 653.914062 C 451.757812 654.359375 452.539062 654.726562 453.355469 655.019531 C 454.171875 655.308594 455.007812 655.519531 455.867188 655.644531 C 456.726562 655.769531 457.585938 655.8125 458.453125 655.769531 C 459.320312 655.726562 460.171875 655.597656 461.011719 655.386719 C 461.855469 655.175781 462.667969 654.882812 463.449219 654.511719 C 464.234375 654.140625 464.972656 653.695312 465.667969 653.175781 C 466.363281 652.660156 467.003906 652.078125 467.582031 651.4375 C 468.164062 650.792969 468.679688 650.097656 469.121094 649.355469 C 469.566406 648.609375 469.933594 647.828125 470.226562 647.011719 L 490.671875 589.78125 L 556.902344 589.78125 L 577.347656 647.011719 C 577.578125 647.652344 577.851562 648.265625 578.171875 648.863281 C 578.496094 649.457031 578.863281 650.023438 579.269531 650.5625 C 579.679688 651.101562 580.128906 651.605469 580.617188 652.078125 C 581.101562 652.546875 581.621094 652.976562 582.175781 653.367188 C 582.730469 653.757812 583.308594 654.101562 583.914062 654.402344 C 584.523438 654.703125 585.148438 654.957031 585.792969 655.160156 C 586.4375 655.363281 587.09375 655.519531 587.765625 655.621094 C 588.433594 655.726562 589.105469 655.777344 589.78125 655.777344 C 590.308594 655.777344 590.835938 655.746094 591.355469 655.683594 C 591.878906 655.621094 592.398438 655.527344 592.910156 655.402344 C 593.421875 655.277344 593.925781 655.121094 594.417969 654.9375 C 594.910156 654.753906 595.390625 654.539062 595.859375 654.296875 C 596.328125 654.054688 596.777344 653.785156 597.214844 653.488281 C 597.648438 653.191406 598.066406 652.871094 598.460938 652.523438 C 598.859375 652.175781 599.234375 651.808594 599.585938 651.417969 C 599.941406 651.027344 600.269531 650.613281 600.570312 650.183594 C 600.875 649.753906 601.152344 649.304688 601.402344 648.84375 C 601.652344 648.378906 601.875 647.902344 602.066406 647.410156 C 602.257812 646.921875 602.421875 646.421875 602.554688 645.910156 C 602.6875 645.402344 602.789062 644.886719 602.863281 644.363281 C 602.933594 643.84375 602.972656 643.316406 602.980469 642.792969 C 602.988281 642.265625 602.96875 641.738281 602.914062 641.214844 C 602.859375 640.691406 602.773438 640.171875 602.65625 639.660156 C 602.539062 639.144531 602.394531 638.640625 602.214844 638.144531 Z M 500.09375 563.382812 L 523.789062 497.035156 L 547.546875 563.382812 Z M 500.09375 563.382812 " fill-opacity="1" fill-rule="nonzero"/></svg>