<svg xmlns="http://www.w3.org/2000/svg" xmlns:xlink="http://www.w3.org/1999/xlink" width="1080" zoomAndPan="magnify" viewBox="0 0 810 809.999993" height="1080" preserveAspectRatio="xMidYMid meet" version="1.0"><defs><clipPath id="e29f9b4824"><path d="M 428 447.109375 L 440.75 447.109375 L 440.75 460 L 428 460 Z M 428 447.109375 " clip-rule="nonzero"/></clipPath></defs><rect x="-81" width="972" fill="#ffffff" y="-80.999999" height="971.999992" fill-opacity="1"/><rect x="-81" width="972" fill="#ffffff" y="-80.999999" height="971.999992" fill-opacity="1"/><path fill="#32ff72" d="M 217.851562 621.769531 C 204.199219 581.460938 160.179688 561.914062 127.304688 534.839844 C 74.355469 491.28125 46.726562 418.808594 57.15625 350.988281 C 69.679688 270.386719 129.125 206.777344 174.0625 138.609375 C 190.523438 113.679688 205.695312 87.066406 228.578125 67.910156 C 270.570312 32.734375 335.148438 29.507812 382.433594 57.136719 C 423.527344 81.148438 452.074219 125.003906 496.691406 141.601562 C 515.316406 148.511719 535.4375 150.144531 555.097656 153.113281 C 611.523438 161.863281 667.628906 184.445312 706.398438 226.394531 C 745.167969 268.339844 763.285156 331.789062 742.035156 384.808594 C 731.652344 410.707031 712.9375 432.644531 702.898438 458.707031 C 683.144531 510.507812 700.433594 571.238281 678.910156 622.324219 C 668.019531 648.15625 648.015625 669.171875 625.960938 686.371094 C 622.355469 689.171875 618.6875 691.882812 614.957031 694.511719 C 611.226562 697.140625 607.4375 699.675781 603.585938 702.125 C 599.734375 704.574219 595.828125 706.929688 591.867188 709.195312 C 587.90625 711.460938 583.890625 713.628906 579.828125 715.707031 C 575.765625 717.78125 571.652344 719.761719 567.496094 721.644531 C 563.339844 723.523438 559.140625 725.308594 554.898438 726.992188 C 550.65625 728.675781 546.378906 730.257812 542.0625 731.742188 C 537.746094 733.222656 533.398438 734.605469 529.019531 735.882812 C 524.636719 737.160156 520.230469 738.332031 515.792969 739.402344 C 511.355469 740.472656 506.898438 741.4375 502.414062 742.296875 C 497.933594 743.160156 493.433594 743.914062 488.917969 744.558594 C 484.402344 745.207031 479.871094 745.75 475.328125 746.183594 C 470.785156 746.617188 466.234375 746.945312 461.675781 747.164062 C 457.121094 747.386719 452.558594 747.5 447.996094 747.503906 C 443.433594 747.507812 438.871094 747.40625 434.3125 747.199219 C 429.753906 746.988281 425.203125 746.671875 420.660156 746.246094 C 416.117188 745.824219 411.585938 745.292969 407.066406 744.65625 C 402.546875 744.019531 398.046875 743.273438 393.5625 742.425781 C 389.078125 741.574219 384.617188 740.621094 380.179688 739.5625 C 375.742188 738.5 371.332031 737.339844 366.945312 736.070312 C 362.5625 734.804688 358.210938 733.433594 353.890625 731.960938 C 349.574219 730.488281 345.289062 728.914062 341.046875 727.242188 C 336.800781 725.566406 332.597656 723.792969 328.433594 721.921875 C 324.273438 720.046875 320.160156 718.078125 316.089844 716.011719 C 312.019531 713.945312 308.003906 711.785156 304.035156 709.53125 C 300.070312 707.273438 296.15625 704.925781 292.300781 702.488281 C 288.445312 700.046875 284.648438 697.519531 280.910156 694.898438 C 277.171875 692.28125 273.5 689.578125 269.890625 686.785156 C 266.28125 683.992188 262.738281 681.117188 259.265625 678.160156 C 255.789062 675.199219 252.386719 672.164062 249.054688 669.042969 C 245.722656 665.925781 242.46875 662.730469 239.289062 659.457031 C 236.105469 656.183594 233.003906 652.839844 229.984375 649.421875 " fill-opacity="1" fill-rule="nonzero"/><g clip-path="url(#e29f9b4824)"><path fill="#32ff72" d="M 431.046875 457.652344 C 430.804688 456.933594 430.019531 456.585938 429.433594 456.105469 C 428.492188 455.328125 428 454.039062 428.1875 452.832031 C 428.410156 451.398438 429.46875 450.265625 430.265625 449.054688 C 430.558594 448.609375 430.828125 448.136719 431.238281 447.796875 C 431.984375 447.171875 433.132812 447.113281 433.972656 447.605469 C 434.703125 448.03125 435.210938 448.8125 436.007812 449.109375 C 436.335938 449.230469 436.695312 449.261719 437.046875 449.3125 C 438.050781 449.46875 439.046875 449.871094 439.738281 450.617188 C 440.425781 451.363281 440.75 452.492188 440.371094 453.433594 C 440.1875 453.894531 439.855469 454.285156 439.675781 454.75 C 439.324219 455.671875 439.632812 456.75 439.25 457.660156 C 439.054688 458.121094 438.699219 458.492188 438.304688 458.800781 C 438.050781 459 437.777344 459.171875 437.484375 459.320312 C 437.195312 459.46875 436.894531 459.589844 436.582031 459.679688 C 436.269531 459.773438 435.949219 459.832031 435.625 459.863281 C 435.300781 459.894531 434.976562 459.894531 434.652344 459.863281 C 434.328125 459.835938 434.011719 459.773438 433.699219 459.683594 C 433.386719 459.59375 433.082031 459.472656 432.792969 459.328125 C 432.503906 459.179688 432.230469 459.007812 431.972656 458.808594 C 431.714844 458.609375 431.476562 458.386719 431.261719 458.140625 " fill-opacity="1" fill-rule="nonzero"/></g></svg>