<svg xmlns="http://www.w3.org/2000/svg" xmlns:xlink="http://www.w3.org/1999/xlink" width="500" zoomAndPan="magnify" viewBox="0 0 375 30.000001" height="40" preserveAspectRatio="xMidYMid meet" version="1.0"><defs><clipPath id="fae925391d"><path d="M 120 0 L 124 0 L 124 22.988281 L 120 22.988281 Z M 120 0 " clip-rule="nonzero"/></clipPath><clipPath id="60d541191f"><path d="M 178 0 L 182 0 L 182 22.988281 L 178 22.988281 Z M 178 0 " clip-rule="nonzero"/></clipPath><clipPath id="2f36d644d4"><path d="M 336 0 L 340 0 L 340 22.988281 L 336 22.988281 Z M 336 0 " clip-rule="nonzero"/></clipPath><clipPath id="39ea11cada"><path d="M 170 0 L 174 0 L 174 22.988281 L 170 22.988281 Z M 170 0 " clip-rule="nonzero"/></clipPath><clipPath id="a157f78be2"><path d="M 55.402344 0 L 60 0 L 60 10 L 55.402344 10 Z M 55.402344 0 " clip-rule="nonzero"/></clipPath><clipPath id="4c3bd1b644"><path d="M 365 0 L 368.949219 0 L 368.949219 8 L 365 8 Z M 365 0 " clip-rule="nonzero"/></clipPath></defs><path stroke-linecap="butt" transform="matrix(0.725806, -0.00000000000000171, 0.00000000000000171, 0.725806, 270.142045, 13.855647)" fill="none" stroke-linejoin="miter" d="M -0.00195597 2.001838 L 2.94735 2.001838 " stroke="#e5e5e5" stroke-width="4" stroke-opacity="1" stroke-miterlimit="4"/><g clip-path="url(#fae925391d)"><path fill="#e5e5e5" d="M 123.992188 23.015625 L 120.292969 23.015625 L 120.292969 0.0078125 L 123.992188 0.0078125 Z M 123.992188 23.015625 " fill-opacity="1" fill-rule="nonzero"/></g><path fill="#e5e5e5" d="M 80.851562 20.957031 L 77.15625 20.957031 L 77.15625 0.0078125 L 80.851562 0.0078125 Z M 80.851562 20.957031 " fill-opacity="1" fill-rule="nonzero"/><path fill="#e5e5e5" d="M 116.804688 17.535156 L 113.109375 17.535156 L 113.109375 0.0078125 L 116.804688 0.0078125 Z M 116.804688 17.535156 " fill-opacity="1" fill-rule="nonzero"/><path fill="#e5e5e5" d="M 88.042969 17.535156 L 84.347656 17.535156 L 84.347656 0.0078125 L 88.042969 0.0078125 Z M 88.042969 17.535156 " fill-opacity="1" fill-rule="nonzero"/><path fill="#e5e5e5" d="M 73.667969 16.300781 L 69.96875 16.300781 L 69.96875 0.0078125 L 73.667969 0.0078125 Z M 73.667969 16.300781 " fill-opacity="1" fill-rule="nonzero"/><path fill="#e5e5e5" d="M 109.613281 14.25 L 105.917969 14.25 L 105.917969 0.0117188 L 109.613281 0.0117188 Z M 109.613281 14.25 " fill-opacity="1" fill-rule="nonzero"/><path fill="#e5e5e5" d="M 94.945312 13.085938 L 91.25 13.085938 L 91.25 0.0078125 L 94.945312 0.0078125 Z M 94.945312 13.085938 " fill-opacity="1" fill-rule="nonzero"/><path fill="#e5e5e5" d="M 66.476562 13.085938 L 62.777344 13.085938 L 62.777344 0.0078125 L 66.476562 0.0078125 Z M 66.476562 13.085938 " fill-opacity="1" fill-rule="nonzero"/><path fill="#e5e5e5" d="M 347.125 16.8125 L 343.429688 16.8125 L 343.429688 0.0078125 L 347.125 0.0078125 Z M 347.125 16.8125 " fill-opacity="1" fill-rule="nonzero"/><path fill="#e5e5e5" d="M 325.554688 19.386719 L 321.859375 19.386719 L 321.859375 0.0078125 L 325.554688 0.0078125 Z M 325.554688 19.386719 " fill-opacity="1" fill-rule="nonzero"/><path fill="#e5e5e5" d="M 289.601562 19.386719 L 285.90625 19.386719 L 285.90625 0.0078125 L 289.601562 0.0078125 Z M 289.601562 19.386719 " fill-opacity="1" fill-rule="nonzero"/><path fill="#e5e5e5" d="M 332.75 16.304688 L 329.050781 16.304688 L 329.050781 0.0078125 L 332.75 0.0078125 Z M 332.75 16.304688 " fill-opacity="1" fill-rule="nonzero"/><path fill="#e5e5e5" d="M 318.363281 13.085938 L 314.667969 13.085938 L 314.667969 0.0078125 L 318.363281 0.0078125 Z M 318.363281 13.085938 " fill-opacity="1" fill-rule="nonzero"/><path fill="#e5e5e5" d="M 296.792969 15.75 L 293.097656 15.75 L 293.097656 0.0078125 L 296.792969 0.0078125 Z M 296.792969 15.75 " fill-opacity="1" fill-rule="nonzero"/><path fill="#e5e5e5" d="M 282.417969 15.75 L 278.71875 15.75 L 278.71875 0.0078125 L 282.417969 0.0078125 Z M 282.417969 15.75 " fill-opacity="1" fill-rule="nonzero"/><path fill="#e5e5e5" d="M 303.988281 11.648438 L 300.289062 11.648438 L 300.289062 0.0078125 L 303.988281 0.0078125 Z M 303.988281 11.648438 " fill-opacity="1" fill-rule="nonzero"/><path fill="#e5e5e5" d="M 268.039062 11.648438 L 264.34375 11.648438 L 264.34375 0.0078125 L 268.039062 0.0078125 Z M 268.039062 11.648438 " fill-opacity="1" fill-rule="nonzero"/><path fill="#e5e5e5" d="M 260.847656 9.457031 L 257.152344 9.457031 L 257.152344 0.0078125 L 260.847656 0.0078125 Z M 260.847656 9.457031 " fill-opacity="1" fill-rule="nonzero"/><path fill="#e5e5e5" d="M 246.46875 10.417969 L 242.773438 10.417969 L 242.773438 0.0078125 L 246.46875 0.0078125 Z M 246.46875 10.417969 " fill-opacity="1" fill-rule="nonzero"/><path fill="#e5e5e5" d="M 232.085938 9.457031 L 228.390625 9.457031 L 228.390625 0.0078125 L 232.085938 0.0078125 Z M 232.085938 9.457031 " fill-opacity="1" fill-rule="nonzero"/><path fill="#e5e5e5" d="M 217.710938 9.457031 L 214.011719 9.457031 L 214.011719 0.0078125 L 217.710938 0.0078125 Z M 217.710938 9.457031 " fill-opacity="1" fill-rule="nonzero"/><path fill="#e5e5e5" d="M 224.902344 6.992188 L 221.203125 6.992188 L 221.203125 0.0078125 L 224.902344 0.0078125 Z M 224.902344 6.992188 " fill-opacity="1" fill-rule="nonzero"/><path fill="#e5e5e5" d="M 239.277344 15.007812 L 235.582031 15.007812 L 235.582031 0.0078125 L 239.277344 0.0078125 Z M 239.277344 15.007812 " fill-opacity="1" fill-rule="nonzero"/><path fill="#e5e5e5" d="M 210.515625 12.433594 L 206.820312 12.433594 L 206.820312 0.0078125 L 210.515625 0.0078125 Z M 210.515625 12.433594 " fill-opacity="1" fill-rule="nonzero"/><path fill="#e5e5e5" d="M 196.140625 12.433594 L 192.441406 12.433594 L 192.441406 0.0078125 L 196.140625 0.0078125 Z M 196.140625 12.433594 " fill-opacity="1" fill-rule="nonzero"/><path fill="#e5e5e5" d="M 188.949219 19.929688 L 185.25 19.929688 L 185.25 0.0078125 L 188.949219 0.0078125 Z M 188.949219 19.929688 " fill-opacity="1" fill-rule="nonzero"/><g clip-path="url(#60d541191f)"><path fill="#e5e5e5" d="M 181.761719 22.328125 L 178.066406 22.328125 L 178.066406 0.0078125 L 181.761719 0.0078125 Z M 181.761719 22.328125 " fill-opacity="1" fill-rule="nonzero"/></g><path fill="#e5e5e5" d="M 203.332031 15.007812 L 199.636719 15.007812 L 199.636719 0.0078125 L 203.332031 0.0078125 Z M 203.332031 15.007812 " fill-opacity="1" fill-rule="nonzero"/><path fill="#e5e5e5" d="M 253.65625 7.332031 L 249.960938 7.332031 L 249.960938 0.0117188 L 253.65625 0.0117188 Z M 253.65625 7.332031 " fill-opacity="1" fill-rule="nonzero"/><path fill="#e5e5e5" d="M 275.226562 14.800781 L 271.527344 14.800781 L 271.527344 0.0117188 L 275.226562 0.0117188 Z M 275.226562 14.800781 " fill-opacity="1" fill-rule="nonzero"/><path fill="#e5e5e5" d="M 311.179688 9.699219 L 307.480469 9.699219 L 307.480469 0.0117188 L 311.179688 0.0117188 Z M 311.179688 9.699219 " fill-opacity="1" fill-rule="nonzero"/><path fill="#e5e5e5" d="M 354.316406 15.414062 L 350.621094 15.414062 L 350.621094 0.0078125 L 354.316406 0.0078125 Z M 354.316406 15.414062 " fill-opacity="1" fill-rule="nonzero"/><g clip-path="url(#2f36d644d4)"><path fill="#e5e5e5" d="M 339.933594 22.980469 L 336.238281 22.980469 L 336.238281 0.0078125 L 339.933594 0.0078125 Z M 339.933594 22.980469 " fill-opacity="1" fill-rule="nonzero"/></g><path fill="#e5e5e5" d="M 102.421875 9.699219 L 98.726562 9.699219 L 98.726562 0.0117188 L 102.421875 0.0117188 Z M 102.421875 9.699219 " fill-opacity="1" fill-rule="nonzero"/><g clip-path="url(#39ea11cada)"><path fill="#e5e5e5" d="M 173.789062 23.015625 L 170.09375 23.015625 L 170.09375 0.0078125 L 173.789062 0.0078125 Z M 173.789062 23.015625 " fill-opacity="1" fill-rule="nonzero"/></g><path fill="#e5e5e5" d="M 130.652344 20.957031 L 126.953125 20.957031 L 126.953125 0.0078125 L 130.652344 0.0078125 Z M 130.652344 20.957031 " fill-opacity="1" fill-rule="nonzero"/><path fill="#e5e5e5" d="M 166.597656 17.535156 L 162.902344 17.535156 L 162.902344 0.0078125 L 166.597656 0.0078125 Z M 166.597656 17.535156 " fill-opacity="1" fill-rule="nonzero"/><path fill="#e5e5e5" d="M 137.835938 17.535156 L 134.140625 17.535156 L 134.140625 0.0078125 L 137.835938 0.0078125 Z M 137.835938 17.535156 " fill-opacity="1" fill-rule="nonzero"/><path fill="#e5e5e5" d="M 159.40625 14.25 L 155.710938 14.25 L 155.710938 0.0117188 L 159.40625 0.0117188 Z M 159.40625 14.25 " fill-opacity="1" fill-rule="nonzero"/><path fill="#e5e5e5" d="M 144.742188 13.085938 L 141.042969 13.085938 L 141.042969 0.0078125 L 144.742188 0.0078125 Z M 144.742188 13.085938 " fill-opacity="1" fill-rule="nonzero"/><path fill="#e5e5e5" d="M 152.222656 9.699219 L 148.523438 9.699219 L 148.523438 0.0117188 L 152.222656 0.0117188 Z M 152.222656 9.699219 " fill-opacity="1" fill-rule="nonzero"/><g clip-path="url(#a157f78be2)"><path fill="#e5e5e5" d="M 59.28125 9.699219 L 55.585938 9.699219 L 55.585938 0.0117188 L 59.28125 0.0117188 Z M 59.28125 9.699219 " fill-opacity="1" fill-rule="nonzero"/></g><path fill="#e5e5e5" d="M 361.503906 11.648438 L 357.804688 11.648438 L 357.804688 0.0078125 L 361.503906 0.0078125 Z M 361.503906 11.648438 " fill-opacity="1" fill-rule="nonzero"/><g clip-path="url(#4c3bd1b644)"><path fill="#e5e5e5" d="M 368.695312 7.710938 L 365 7.710938 L 365 0.0078125 L 368.695312 0.0078125 Z M 368.695312 7.710938 " fill-opacity="1" fill-rule="nonzero"/></g></svg>