<svg xmlns="http://www.w3.org/2000/svg" xmlns:xlink="http://www.w3.org/1999/xlink" width="1000" zoomAndPan="magnify" viewBox="0 0 750 374.999991" height="500" preserveAspectRatio="xMidYMid meet" version="1.0"><defs><g/><clipPath id="5d6878b1b0"><path d="M 598.605469 118.703125 L 675 118.703125 L 675 237.203125 L 598.605469 237.203125 Z M 598.605469 118.703125 " clip-rule="nonzero"/></clipPath><clipPath id="9b7b9a1b5f"><path d="M 54 26.394531 L 206.058594 26.394531 L 206.058594 330.144531 L 54 330.144531 Z M 54 26.394531 " clip-rule="nonzero"/></clipPath></defs><g clip-path="url(#5d6878b1b0)"><path fill="#ffffff" d="M 636.769531 207.785156 C 637.601562 207.785156 638.433594 207.746094 639.261719 207.664062 C 640.089844 207.582031 640.914062 207.460938 641.730469 207.296875 C 642.546875 207.136719 643.355469 206.933594 644.152344 206.691406 C 644.949219 206.449219 645.734375 206.167969 646.503906 205.851562 C 647.273438 205.53125 648.027344 205.175781 648.761719 204.78125 C 649.496094 204.390625 650.210938 203.960938 650.902344 203.5 C 651.59375 203.035156 652.265625 202.539062 652.90625 202.011719 C 653.550781 201.484375 654.167969 200.925781 654.757812 200.335938 C 655.347656 199.746094 655.90625 199.128906 656.433594 198.484375 C 656.964844 197.839844 657.457031 197.171875 657.921875 196.480469 C 658.382812 195.785156 658.8125 195.074219 659.207031 194.335938 C 659.597656 193.601562 659.953125 192.851562 660.273438 192.082031 C 660.589844 191.3125 660.871094 190.527344 661.113281 189.730469 C 661.355469 188.933594 661.558594 188.125 661.71875 187.308594 C 661.882812 186.492188 662.003906 185.667969 662.085938 184.839844 C 662.167969 184.007812 662.210938 183.179688 662.210938 182.34375 L 662.210938 144.183594 C 662.210938 143.347656 662.167969 142.519531 662.085938 141.6875 C 662.003906 140.859375 661.882812 140.035156 661.71875 139.21875 C 661.558594 138.402344 661.355469 137.59375 661.113281 136.796875 C 660.871094 136 660.589844 135.214844 660.273438 134.445312 C 659.953125 133.675781 659.597656 132.925781 659.207031 132.191406 C 658.8125 131.453125 658.382812 130.742188 657.921875 130.046875 C 657.457031 129.355469 656.964844 128.6875 656.433594 128.042969 C 655.90625 127.398438 655.347656 126.78125 654.757812 126.191406 C 654.167969 125.605469 653.550781 125.042969 652.90625 124.515625 C 652.265625 123.988281 651.59375 123.492188 650.902344 123.027344 C 650.210938 122.566406 649.496094 122.136719 648.761719 121.746094 C 648.027344 121.351562 647.273438 120.996094 646.503906 120.679688 C 645.734375 120.359375 644.949219 120.078125 644.152344 119.835938 C 643.355469 119.59375 642.546875 119.394531 641.730469 119.230469 C 640.914062 119.066406 640.089844 118.945312 639.261719 118.863281 C 638.433594 118.78125 637.601562 118.742188 636.769531 118.742188 C 635.933594 118.742188 635.101562 118.78125 634.273438 118.863281 C 633.445312 118.945312 632.621094 119.066406 631.804688 119.230469 C 630.988281 119.394531 630.179688 119.59375 629.382812 119.835938 C 628.585938 120.078125 627.800781 120.359375 627.03125 120.679688 C 626.261719 120.996094 625.511719 121.351562 624.773438 121.746094 C 624.039062 122.136719 623.328125 122.566406 622.632812 123.027344 C 621.941406 123.492188 621.273438 123.988281 620.628906 124.515625 C 619.984375 125.042969 619.367188 125.605469 618.777344 126.191406 C 618.1875 126.78125 617.628906 127.398438 617.101562 128.042969 C 616.574219 128.6875 616.078125 129.355469 615.613281 130.046875 C 615.152344 130.742188 614.722656 131.453125 614.332031 132.191406 C 613.9375 132.925781 613.582031 133.675781 613.261719 134.445312 C 612.945312 135.214844 612.664062 136 612.421875 136.796875 C 612.179688 137.59375 611.976562 138.402344 611.816406 139.21875 C 611.652344 140.035156 611.53125 140.859375 611.449219 141.6875 C 611.367188 142.519531 611.328125 143.347656 611.328125 144.183594 L 611.328125 182.34375 C 611.328125 183.179688 611.367188 184.007812 611.449219 184.839844 C 611.53125 185.667969 611.652344 186.492188 611.816406 187.308594 C 611.976562 188.125 612.179688 188.933594 612.421875 189.730469 C 612.664062 190.527344 612.945312 191.3125 613.261719 192.082031 C 613.582031 192.851562 613.9375 193.601562 614.332031 194.335938 C 614.722656 195.074219 615.152344 195.785156 615.613281 196.480469 C 616.078125 197.171875 616.574219 197.839844 617.101562 198.484375 C 617.628906 199.128906 618.1875 199.746094 618.777344 200.335938 C 619.367188 200.925781 619.984375 201.484375 620.628906 202.011719 C 621.273438 202.539062 621.941406 203.035156 622.632812 203.5 C 623.328125 203.960938 624.039062 204.390625 624.773438 204.78125 C 625.511719 205.175781 626.261719 205.53125 627.03125 205.851562 C 627.800781 206.167969 628.585938 206.449219 629.382812 206.691406 C 630.179688 206.933594 630.988281 207.136719 631.804688 207.296875 C 632.621094 207.460938 633.445312 207.582031 634.273438 207.664062 C 635.101562 207.746094 635.933594 207.785156 636.769531 207.785156 Z M 619.808594 144.183594 C 619.808594 143.628906 619.835938 143.074219 619.890625 142.519531 C 619.941406 141.96875 620.023438 141.417969 620.132812 140.875 C 620.242188 140.328125 620.375 139.789062 620.539062 139.257812 C 620.699219 138.726562 620.886719 138.207031 621.097656 137.691406 C 621.3125 137.179688 621.546875 136.675781 621.808594 136.1875 C 622.070312 135.699219 622.355469 135.222656 622.664062 134.757812 C 622.972656 134.296875 623.304688 133.851562 623.65625 133.421875 C 624.007812 132.992188 624.382812 132.582031 624.773438 132.191406 C 625.167969 131.796875 625.578125 131.425781 626.007812 131.070312 C 626.4375 130.71875 626.882812 130.390625 627.34375 130.082031 C 627.808594 129.773438 628.28125 129.488281 628.773438 129.222656 C 629.261719 128.960938 629.765625 128.726562 630.277344 128.511719 C 630.789062 128.300781 631.3125 128.113281 631.84375 127.953125 C 632.375 127.789062 632.914062 127.65625 633.460938 127.546875 C 634.003906 127.4375 634.550781 127.359375 635.105469 127.304688 C 635.660156 127.25 636.210938 127.222656 636.769531 127.222656 C 637.324219 127.222656 637.878906 127.25 638.429688 127.304688 C 638.984375 127.359375 639.53125 127.4375 640.078125 127.546875 C 640.621094 127.65625 641.160156 127.789062 641.691406 127.953125 C 642.222656 128.113281 642.746094 128.300781 643.257812 128.511719 C 643.773438 128.726562 644.273438 128.960938 644.761719 129.222656 C 645.253906 129.488281 645.730469 129.773438 646.191406 130.082031 C 646.652344 130.390625 647.097656 130.71875 647.527344 131.070312 C 647.957031 131.425781 648.367188 131.796875 648.761719 132.191406 C 649.152344 132.582031 649.527344 132.992188 649.878906 133.421875 C 650.230469 133.851562 650.5625 134.296875 650.871094 134.757812 C 651.179688 135.222656 651.464844 135.699219 651.726562 136.1875 C 651.988281 136.675781 652.226562 137.179688 652.4375 137.691406 C 652.648438 138.207031 652.835938 138.726562 653 139.257812 C 653.160156 139.789062 653.292969 140.328125 653.402344 140.875 C 653.511719 141.417969 653.59375 141.96875 653.648438 142.519531 C 653.703125 143.074219 653.730469 143.628906 653.730469 144.183594 L 653.730469 182.34375 C 653.730469 182.898438 653.703125 183.453125 653.648438 184.007812 C 653.59375 184.558594 653.511719 185.109375 653.402344 185.652344 C 653.292969 186.199219 653.160156 186.738281 653 187.269531 C 652.835938 187.800781 652.648438 188.324219 652.4375 188.835938 C 652.226562 189.347656 651.988281 189.851562 651.726562 190.339844 C 651.464844 190.828125 651.179688 191.304688 650.871094 191.769531 C 650.5625 192.230469 650.230469 192.675781 649.878906 193.105469 C 649.527344 193.535156 649.152344 193.945312 648.761719 194.339844 C 648.367188 194.730469 647.957031 195.101562 647.527344 195.457031 C 647.097656 195.808594 646.652344 196.140625 646.191406 196.449219 C 645.730469 196.757812 645.253906 197.042969 644.761719 197.304688 C 644.273438 197.566406 643.773438 197.800781 643.257812 198.015625 C 642.746094 198.226562 642.222656 198.414062 641.691406 198.574219 C 641.160156 198.738281 640.621094 198.871094 640.078125 198.980469 C 639.53125 199.089844 638.984375 199.167969 638.429688 199.222656 C 637.878906 199.277344 637.324219 199.304688 636.769531 199.304688 C 636.210938 199.304688 635.660156 199.277344 635.105469 199.222656 C 634.550781 199.167969 634.003906 199.089844 633.460938 198.980469 C 632.914062 198.871094 632.375 198.738281 631.84375 198.574219 C 631.3125 198.414062 630.789062 198.226562 630.277344 198.015625 C 629.765625 197.800781 629.261719 197.566406 628.773438 197.304688 C 628.28125 197.042969 627.808594 196.757812 627.34375 196.449219 C 626.882812 196.140625 626.4375 195.808594 626.007812 195.457031 C 625.578125 195.101562 625.167969 194.730469 624.773438 194.339844 C 624.382812 193.945312 624.007812 193.535156 623.65625 193.105469 C 623.304688 192.675781 622.972656 192.230469 622.664062 191.769531 C 622.355469 191.304688 622.070312 190.828125 621.808594 190.339844 C 621.546875 189.851562 621.3125 189.347656 621.097656 188.835938 C 620.886719 188.324219 620.699219 187.800781 620.539062 187.269531 C 620.375 186.738281 620.242188 186.199219 620.132812 185.652344 C 620.023438 185.109375 619.941406 184.558594 619.890625 184.007812 C 619.835938 183.453125 619.808594 182.898438 619.808594 182.34375 Z M 674.929688 173.863281 L 674.929688 182.34375 C 673.320312 203.164062 659.835938 218.257812 641.007812 220.253906 L 641.007812 228.988281 L 653.730469 228.988281 L 653.730469 237.46875 L 619.808594 237.46875 L 619.808594 228.988281 L 632.527344 228.988281 L 632.527344 220.253906 C 613.871094 218.257812 600.386719 203.292969 598.605469 182.34375 L 598.605469 173.863281 L 607.085938 173.863281 L 607.085938 178.105469 C 607.085938 198.074219 619.296875 212.027344 636.769531 212.027344 C 654.238281 212.027344 666.449219 198.074219 666.449219 178.105469 L 666.449219 173.863281 Z M 674.929688 173.863281 " fill-opacity="1" fill-rule="nonzero"/></g><g clip-path="url(#9b7b9a1b5f)"><path fill="#fca311" d="M 206.257812 26.148438 L 206.257812 66.476562 C 144.699219 66.476562 94.621094 116.554688 94.621094 178.105469 C 94.621094 239.65625 144.699219 289.738281 206.257812 289.738281 L 206.257812 330.066406 C 159.902344 330.066406 116.722656 309.457031 87.171875 272.570312 C 69.46875 250.460938 58.375 223.707031 55.261719 195.550781 C 50.058594 148.5625 66.019531 103.4375 98.804688 70.65625 C 127.507812 41.957031 165.671875 26.148438 206.257812 26.148438 Z M 206.257812 26.148438 " fill-opacity="1" fill-rule="nonzero"/></g><g fill="#ffffff" fill-opacity="1"><g transform="translate(135.848349, 204.290699)"><g><path d="M 12.515625 -7.671875 L 19.25 -9.546875 L 19.25 -19.875 L 4.9375 -42.8125 L 1.328125 -47.265625 L 1.640625 -52.75 L 24.578125 -52.75 L 25.359375 -45.3125 L 20.265625 -43.90625 L 28.484375 -29.96875 L 35.296875 -41.484375 C 35.503906 -41.847656 35.609375 -42.210938 35.609375 -42.578125 C 35.609375 -43.148438 35.296875 -43.566406 34.671875 -43.828125 L 30.125 -45.859375 L 30.6875 -52.75 L 50.40625 -52.75 L 50.953125 -45.390625 L 47.828125 -43.515625 L 33.421875 -22.390625 L 33.421875 -12.671875 C 33.421875 -11.421875 33.507812 -10.613281 33.6875 -10.25 C 33.875 -9.882812 34.332031 -9.519531 35.0625 -9.15625 L 39.921875 -6.265625 L 39.609375 0 L 12.90625 0 Z M 12.515625 -7.671875 "/></g></g></g><g fill="#ffffff" fill-opacity="1"><g transform="translate(188.515807, 204.290699)"><g><path d="M 20.890625 1.015625 C 14.265625 1.015625 9.320312 -0.675781 6.0625 -4.0625 C 2.800781 -7.457031 1.171875 -12.648438 1.171875 -19.640625 C 1.171875 -24.128906 1.992188 -28.039062 3.640625 -31.375 C 5.285156 -34.71875 7.644531 -37.273438 10.71875 -39.046875 C 13.800781 -40.828125 17.425781 -41.71875 21.59375 -41.71875 C 35.113281 -41.71875 41.875 -34.722656 41.875 -20.734375 C 41.875 -13.898438 40.035156 -8.566406 36.359375 -4.734375 C 32.679688 -0.898438 27.523438 1.015625 20.890625 1.015625 Z M 22.15625 -8.140625 C 23.195312 -8.140625 24.109375 -8.226562 24.890625 -8.40625 C 25.671875 -8.59375 26.503906 -8.894531 27.390625 -9.3125 C 27.703125 -10.507812 27.960938 -12.046875 28.171875 -13.921875 C 28.378906 -15.804688 28.484375 -17.609375 28.484375 -19.328125 C 28.484375 -23.554688 27.816406 -26.765625 26.484375 -28.953125 C 25.160156 -31.148438 23.191406 -32.25 20.578125 -32.25 C 18.859375 -32.25 17.113281 -32.015625 15.34375 -31.546875 C 14.976562 -30.753906 14.691406 -29.484375 14.484375 -27.734375 C 14.273438 -25.992188 14.171875 -24.003906 14.171875 -21.765625 C 14.171875 -17.378906 14.859375 -14.007812 16.234375 -11.65625 C 17.617188 -9.3125 19.59375 -8.140625 22.15625 -8.140625 Z M 22.15625 -8.140625 "/></g></g></g><g fill="#ffffff" fill-opacity="1"><g transform="translate(231.792336, 204.290699)"><g><path d="M 13.3125 1.015625 C 9.757812 1.015625 6.910156 0.0351562 4.765625 -1.921875 C 2.628906 -3.878906 1.5625 -6.394531 1.5625 -9.46875 C 1.5625 -13.59375 3.632812 -16.828125 7.78125 -19.171875 C 11.9375 -21.523438 17.976562 -22.859375 25.90625 -23.171875 C 25.90625 -25.617188 25.707031 -27.425781 25.3125 -28.59375 C 24.925781 -29.769531 24.222656 -30.582031 23.203125 -31.03125 C 22.179688 -31.476562 20.628906 -31.703125 18.546875 -31.703125 C 16.410156 -31.703125 14.898438 -31.625 14.015625 -31.46875 L 10.796875 -25.125 L 5.015625 -25.515625 C 4.117188 -29.691406 3.488281 -34.019531 3.125 -38.5 C 6.050781 -39.5 9.25 -40.285156 12.71875 -40.859375 C 16.1875 -41.429688 19.4375 -41.71875 22.46875 -41.71875 C 28 -41.71875 31.960938 -40.632812 34.359375 -38.46875 C 36.753906 -36.300781 37.953125 -32.710938 37.953125 -27.703125 L 37.953125 -11.34375 C 37.953125 -10.40625 38.039062 -9.753906 38.21875 -9.390625 C 38.40625 -9.023438 38.816406 -8.660156 39.453125 -8.296875 L 42.578125 -6.5 L 42.265625 -1.640625 C 36.210938 -0.234375 31.4375 0.546875 27.9375 0.703125 C 27.832031 0.390625 27.675781 -0.164062 27.46875 -0.96875 C 27.257812 -1.78125 27.078125 -2.550781 26.921875 -3.28125 C 24.890625 -1.976562 22.660156 -0.9375 20.234375 -0.15625 C 17.804688 0.625 15.5 1.015625 13.3125 1.015625 Z M 18.546875 -7.828125 C 20.628906 -7.828125 23.160156 -8.53125 26.140625 -9.9375 L 25.828125 -15.890625 C 24.578125 -15.992188 23.742188 -16.046875 23.328125 -16.046875 C 21.910156 -16.046875 20.265625 -15.898438 18.390625 -15.609375 C 16.515625 -15.328125 15.03125 -15.003906 13.9375 -14.640625 C 13.78125 -13.960938 13.703125 -13.332031 13.703125 -12.75 C 13.703125 -11.1875 14.128906 -9.972656 14.984375 -9.109375 C 15.847656 -8.253906 17.035156 -7.828125 18.546875 -7.828125 Z M 18.546875 -7.828125 "/></g></g></g><g fill="#ffffff" fill-opacity="1"><g transform="translate(275.147119, 204.290699)"><g><path d="M 17.140625 1.015625 C 12.128906 1.015625 8.210938 -0.859375 5.390625 -4.609375 C 2.578125 -8.367188 1.171875 -13.40625 1.171875 -19.71875 C 1.171875 -26.976562 3.085938 -32.457031 6.921875 -36.15625 C 10.753906 -39.863281 16.222656 -41.71875 23.328125 -41.71875 C 23.742188 -41.71875 25.097656 -41.664062 27.390625 -41.5625 L 27.390625 -46.25 C 27.390625 -47.40625 27.3125 -48.164062 27.15625 -48.53125 C 27 -48.894531 26.554688 -49.285156 25.828125 -49.703125 L 22.3125 -51.5 L 22.703125 -57.453125 C 27.703125 -58.335938 31.398438 -58.945312 33.796875 -59.28125 C 36.203125 -59.625 38.113281 -59.820312 39.53125 -59.875 C 40 -58.675781 40.335938 -57.316406 40.546875 -55.796875 L 40.546875 -11.265625 C 40.546875 -10.328125 40.632812 -9.675781 40.8125 -9.3125 C 41 -8.945312 41.429688 -8.582031 42.109375 -8.21875 L 45.078125 -6.421875 L 44.765625 -1.5625 C 39.648438 -0.257812 34.640625 0.519531 29.734375 0.78125 C 29.367188 -0.207031 29.003906 -1.40625 28.640625 -2.8125 C 25.097656 -0.257812 21.265625 1.015625 17.140625 1.015625 Z M 21.671875 -9 C 23.398438 -9 25.332031 -9.570312 27.46875 -10.71875 L 27.46875 -31 C 25.90625 -31.675781 23.894531 -32.015625 21.4375 -32.015625 C 19.457031 -32.015625 17.554688 -31.753906 15.734375 -31.234375 C 15.316406 -30.234375 14.988281 -28.875 14.75 -27.15625 C 14.519531 -25.4375 14.40625 -23.53125 14.40625 -21.4375 C 14.40625 -17.164062 14.988281 -14.023438 16.15625 -12.015625 C 17.332031 -10.003906 19.171875 -9 21.671875 -9 Z M 21.671875 -9 "/></g></g></g><g fill="#ffffff" fill-opacity="1"><g transform="translate(321.24092, 204.290699)"><g/></g></g><g fill="#fca311" fill-opacity="1"><g transform="translate(337.363965, 204.290699)"><g><path d="M 2.109375 -8.21875 L 7.046875 -9.546875 L 7.046875 -39.53125 C 7.046875 -40.882812 6.953125 -41.78125 6.765625 -42.21875 C 6.585938 -42.664062 6.082031 -43.070312 5.25 -43.4375 L 1.953125 -45.3125 L 2.1875 -52.75 L 26.609375 -52.75 L 27 -44.765625 L 21.203125 -43.203125 L 21.203125 -9.390625 L 31.078125 -9.625 L 37.71875 -17.21875 L 43.75 -16.90625 C 43.644531 -12.519531 43.28125 -6.882812 42.65625 0 L 2.5 0 Z M 2.109375 -8.21875 "/></g></g></g><g fill="#fca311" fill-opacity="1"><g transform="translate(383.06648, 204.290699)"><g><path d="M 5.25 -57.921875 L 18.546875 -61.4375 L 21.765625 -49.546875 L 8.53125 -45.9375 Z M 1.953125 -7.203125 L 7.4375 -8.84375 L 7.4375 -27.859375 C 7.4375 -29.003906 7.34375 -29.75 7.15625 -30.09375 C 6.976562 -30.4375 6.523438 -30.816406 5.796875 -31.234375 L 2.34375 -33.109375 L 2.734375 -38.96875 C 7.066406 -39.8125 10.421875 -40.425781 12.796875 -40.8125 C 15.171875 -41.207031 17.347656 -41.429688 19.328125 -41.484375 C 20.003906 -39.234375 20.421875 -37.5625 20.578125 -36.46875 L 20.578125 -11.421875 C 20.578125 -10.328125 20.65625 -9.597656 20.8125 -9.234375 C 20.96875 -8.867188 21.414062 -8.476562 22.15625 -8.0625 L 25.984375 -5.875 L 25.671875 0 L 2.1875 0 Z M 1.953125 -7.203125 "/></g></g></g><g fill="#fca311" fill-opacity="1"><g transform="translate(410.221912, 204.290699)"><g><path d="M -0.15625 9.390625 L 4.703125 8.0625 L 4.703125 -27.859375 C 4.703125 -29.003906 4.617188 -29.75 4.453125 -30.09375 C 4.296875 -30.4375 3.851562 -30.816406 3.125 -31.234375 L -0.390625 -33.109375 L 0 -38.96875 C 0.257812 -39.019531 0.519531 -39.070312 0.78125 -39.125 C 1.039062 -39.1875 1.328125 -39.242188 1.640625 -39.296875 C 4.097656 -39.765625 6.695312 -40.21875 9.4375 -40.65625 C 12.175781 -41.101562 14.429688 -41.378906 16.203125 -41.484375 C 16.671875 -40.390625 16.984375 -39.132812 17.140625 -37.71875 C 18.753906 -39.03125 20.488281 -40.023438 22.34375 -40.703125 C 24.195312 -41.378906 26.035156 -41.71875 27.859375 -41.71875 C 33.078125 -41.71875 37.082031 -39.878906 39.875 -36.203125 C 42.664062 -32.523438 44.0625 -27.289062 44.0625 -20.5 C 44.0625 -13.457031 42.128906 -8.070312 38.265625 -4.34375 C 34.410156 -0.613281 28.828125 1.25 21.515625 1.25 C 20.734375 1.25 19.507812 1.195312 17.84375 1.09375 L 17.84375 5.40625 C 17.84375 6.550781 17.921875 7.304688 18.078125 7.671875 C 18.234375 8.035156 18.675781 8.398438 19.40625 8.765625 L 24.03125 11.34375 L 23.71875 16.828125 L 0.234375 16.828125 Z M 23.5625 -8.453125 C 26.007812 -8.453125 27.988281 -8.789062 29.5 -9.46875 C 29.914062 -10.769531 30.269531 -12.347656 30.5625 -14.203125 C 30.851562 -16.054688 31 -17.789062 31 -19.40625 C 31 -23.425781 30.304688 -26.53125 28.921875 -28.71875 C 27.535156 -30.914062 25.617188 -32.015625 23.171875 -32.015625 C 21.648438 -32.015625 19.875 -31.570312 17.84375 -30.6875 L 17.84375 -9.390625 C 19.351562 -8.765625 21.257812 -8.453125 23.5625 -8.453125 Z M 23.5625 -8.453125 "/></g></g></g><g fill="#fca311" fill-opacity="1"><g transform="translate(455.846173, 204.290699)"><g><path d="M 16.515625 1.328125 C 12.390625 1.328125 7.613281 0.597656 2.1875 -0.859375 C 2.5 -5.972656 2.835938 -9.753906 3.203125 -12.203125 L 7.671875 -13.078125 L 12.59375 -7.828125 C 14.320312 -7.304688 16.253906 -7.046875 18.390625 -7.046875 C 19.585938 -7.046875 20.523438 -7.125 21.203125 -7.28125 C 21.359375 -7.695312 21.4375 -8.269531 21.4375 -9 C 21.4375 -9.625 21.289062 -10.144531 21 -10.5625 C 20.71875 -10.976562 20.082031 -11.472656 19.09375 -12.046875 C 18.101562 -12.617188 16.382812 -13.507812 13.9375 -14.71875 C 10.851562 -16.332031 8.503906 -17.773438 6.890625 -19.046875 C 5.273438 -20.328125 4.113281 -21.644531 3.40625 -23 C 2.695312 -24.363281 2.34375 -25.984375 2.34375 -27.859375 C 2.34375 -32.035156 3.894531 -35.347656 7 -37.796875 C 10.101562 -40.253906 14.316406 -41.484375 19.640625 -41.484375 C 21.835938 -41.484375 24.144531 -41.234375 26.5625 -40.734375 C 28.988281 -40.242188 31.171875 -39.578125 33.109375 -38.734375 C 33.109375 -35.347656 32.875 -31.566406 32.40625 -27.390625 L 28.328125 -26.765625 L 23.09375 -32.40625 C 21.726562 -32.820312 19.742188 -33.03125 17.140625 -33.03125 C 16.722656 -33.03125 15.890625 -32.976562 14.640625 -32.875 C 14.484375 -32.5625 14.40625 -32.066406 14.40625 -31.390625 C 14.40625 -30.648438 14.613281 -30.003906 15.03125 -29.453125 C 15.445312 -28.910156 16.1875 -28.3125 17.25 -27.65625 C 18.320312 -27.007812 20.035156 -26.085938 22.390625 -24.890625 C 25.828125 -23.222656 28.421875 -21.773438 30.171875 -20.546875 C 31.921875 -19.316406 33.144531 -18.078125 33.84375 -16.828125 C 34.550781 -15.578125 34.90625 -14.0625 34.90625 -12.28125 C 34.90625 -8.007812 33.273438 -4.671875 30.015625 -2.265625 C 26.753906 0.128906 22.253906 1.328125 16.515625 1.328125 Z M 16.515625 1.328125 "/></g></g></g><g fill="#fca311" fill-opacity="1"><g transform="translate(491.922983, 204.290699)"><g><path d="M 20.265625 0.9375 C 14.160156 0.9375 9.453125 -0.910156 6.140625 -4.609375 C 2.828125 -8.316406 1.171875 -13.429688 1.171875 -19.953125 C 1.171875 -24.492188 1.976562 -28.394531 3.59375 -31.65625 C 5.21875 -34.914062 7.515625 -37.40625 10.484375 -39.125 C 13.460938 -40.851562 16.929688 -41.71875 20.890625 -41.71875 C 26.785156 -41.71875 31.3125 -39.835938 34.46875 -36.078125 C 37.632812 -32.328125 39.132812 -26.976562 38.96875 -20.03125 L 15.1875 -15.65625 C 15.914062 -13.457031 16.941406 -11.847656 18.265625 -10.828125 C 19.597656 -9.816406 21.363281 -9.3125 23.5625 -9.3125 C 25.070312 -9.3125 26.867188 -9.53125 28.953125 -9.96875 C 31.046875 -10.414062 33.160156 -11.03125 35.296875 -11.8125 L 37.09375 -4.0625 C 35.164062 -2.601562 32.660156 -1.40625 29.578125 -0.46875 C 26.503906 0.46875 23.398438 0.9375 20.265625 0.9375 Z M 26.140625 -26.609375 C 26.035156 -28.585938 25.472656 -30.035156 24.453125 -30.953125 C 23.441406 -31.867188 22.019531 -32.328125 20.1875 -32.328125 C 18.675781 -32.328125 17.242188 -32.117188 15.890625 -31.703125 C 14.796875 -29.140625 14.300781 -26.375 14.40625 -23.40625 Z M 26.140625 -26.609375 "/></g></g></g><g fill="#fca311" fill-opacity="1"><g transform="translate(532.695258, 204.290699)"><g><path d="M 14.015625 17.921875 C 10.253906 15.421875 6.910156 12.1875 3.984375 8.21875 L 12.671875 -0.3125 L 1.328125 -30.203125 C 0.753906 -31.617188 0.363281 -32.535156 0.15625 -32.953125 C -0.0507812 -33.367188 -0.441406 -33.941406 -1.015625 -34.671875 L -2.34375 -36.390625 L -1.953125 -40.9375 L 18.078125 -40.9375 L 18.859375 -34.28125 L 14.328125 -33.1875 L 20.734375 -13.546875 L 27.9375 -31.546875 C 28.039062 -31.859375 28.09375 -32.09375 28.09375 -32.25 C 28.09375 -32.71875 27.882812 -33.03125 27.46875 -33.1875 L 23.796875 -34.75 L 24.5 -40.9375 L 39.375 -40.9375 L 40.078125 -34.59375 L 30.046875 -12.75 C 26.453125 -4.875 23.476562 1.300781 21.125 5.78125 C 18.78125 10.269531 16.410156 14.316406 14.015625 17.921875 Z M 14.015625 17.921875 "/></g></g></g></svg>